<?xml version="1.0" encoding="UTF-8"?>
<!DOCTYPE svg PUBLIC "-//W3C//DTD SVG 1.1//EN" "http://www.w3.org/Graphics/SVG/1.1/DTD/svg11.dtd">
<svg xmlns="http://www.w3.org/2000/svg" version="1.1" width="1314px" height="1338px" style="shape-rendering:geometricPrecision; text-rendering:geometricPrecision; image-rendering:optimizeQuality; fill-rule:evenodd; clip-rule:evenodd" xmlns:xlink="http://www.w3.org/1999/xlink">
<g><path style="opacity:0.919" fill="#fefffe" d="M 661.5,160.5 C 666.5,160.5 671.5,160.5 676.5,160.5C 684.14,182.92 692.473,205.086 701.5,227C 679.153,227.674 656.82,227.34 634.5,226C 643.642,204.217 652.642,182.384 661.5,160.5 Z M 667.5,182.5 C 668.75,182.577 669.583,183.244 670,184.5C 673.833,194.833 677.667,205.167 681.5,215.5C 680.667,215.833 679.833,216.167 679,216.5C 670.857,215.743 662.69,215.243 654.5,215C 659.252,204.329 663.586,193.496 667.5,182.5 Z"/></g>
<g><path style="opacity:0.9" fill="#fefffe" d="M 710.5,163.5 C 711.097,162.861 711.93,162.528 713,162.5C 717.51,163.279 722.01,164.113 726.5,165C 729.858,172.736 733.024,180.57 736,188.5C 741.144,181.722 746.644,175.222 752.5,169C 757.554,169.176 762.554,170.009 767.5,171.5C 758.854,181.98 750.021,192.314 741,202.5C 738.94,213.195 736.773,223.861 734.5,234.5C 730.256,233.293 725.923,232.626 721.5,232.5C 723.057,222.157 724.724,211.824 726.5,201.5C 721.669,188.519 716.336,175.852 710.5,163.5 Z"/></g>
<g><path style="opacity:0.914" fill="#fefffe" d="M 537.5,171.5 C 565.007,170.842 578.84,184.176 579,211.5C 573.269,234.124 558.769,243.957 535.5,241C 515.627,233.766 507.127,219.6 510,198.5C 513.795,183.87 522.962,174.87 537.5,171.5 Z M 540.5,185.5 C 557.784,186.284 565.618,195.284 564,212.5C 557.334,226.833 546.834,230.667 532.5,224C 523.162,216.215 520.995,206.715 526,195.5C 529.64,190.348 534.474,187.014 540.5,185.5 Z"/></g>
<g><path style="opacity:0.904" fill="#fefffe" d="M 775.5,174.5 C 788.536,177.676 801.536,181.009 814.5,184.5C 813.902,188.935 812.402,192.935 810,196.5C 806.713,195.345 803.379,194.345 800,193.5C 799.055,193.905 798.388,194.572 798,195.5C 793.183,212.105 788.683,228.771 784.5,245.5C 779.325,245.274 774.658,243.774 770.5,241C 775.065,224.471 779.732,207.971 784.5,191.5C 784.392,190.558 784.059,189.725 783.5,189C 779.899,188.06 776.399,186.893 773,185.5C 773.3,181.755 774.133,178.088 775.5,174.5 Z"/></g>
<g><path style="opacity:0.896" fill="#fefffe" d="M 487.5,187.5 C 496.071,208.537 504.071,229.871 511.5,251.5C 507.314,252.229 503.314,253.562 499.5,255.5C 491.032,234.428 483.366,213.095 476.5,191.5C 480.383,190.541 484.05,189.208 487.5,187.5 Z"/></g>
<g><path style="opacity:0.897" fill="#fefffe" d="M 828.5,190.5 C 833.274,191.187 837.274,193.187 840.5,196.5C 833.524,217.278 825.69,237.611 817,257.5C 812.771,256.489 808.937,254.822 805.5,252.5C 813.175,231.805 820.842,211.138 828.5,190.5 Z"/></g>
<g><path style="opacity:0.899" fill="#fefffe" d="M 858.5,202.5 C 863.386,203.61 867.719,205.776 871.5,209C 868.303,215.895 864.969,222.728 861.5,229.5C 862,229.833 862.5,230.167 863,230.5C 872.56,226.304 882.06,221.97 891.5,217.5C 896.326,219.746 900.992,222.246 905.5,225C 892.491,230.838 879.491,236.671 866.5,242.5C 870.399,256.263 874.066,270.096 877.5,284C 877.167,284.5 876.833,285 876.5,285.5C 871.833,283.167 867.167,280.833 862.5,278.5C 859.357,267.262 856.524,255.929 854,244.5C 850,252.5 846,260.5 842,268.5C 837.426,266.799 833.259,264.465 829.5,261.5C 839.452,241.93 849.119,222.263 858.5,202.5 Z"/></g>
<g><path style="opacity:0.907" fill="#fefffe" d="M 444.5,203.5 C 446.722,203.178 448.556,203.845 450,205.5C 462.514,222.677 475.014,239.844 487.5,257C 483.97,260.099 479.97,262.099 475.5,263C 467.456,251.745 459.289,240.578 451,229.5C 451.797,244.049 453.297,258.549 455.5,273C 454.133,275.2 452.133,276.7 449.5,277.5C 437.886,268.056 426.72,258.056 416,247.5C 419.431,260.964 423.597,274.297 428.5,287.5C 424.953,290.196 421.119,292.529 417,294.5C 409.932,273.13 402.765,251.796 395.5,230.5C 399.136,227.677 403.136,225.344 407.5,223.5C 418.239,233.284 429.073,242.951 440,252.5C 439.04,238.648 437.54,224.814 435.5,211C 435.833,210.167 436.167,209.333 436.5,208.5C 439.568,207.309 442.235,205.642 444.5,203.5 Z"/></g>
<g><path style="opacity:0.9" fill="#fefffe" d="M 920.5,234.5 C 925.168,236.167 929.168,238.834 932.5,242.5C 927.623,249.754 922.623,256.921 917.5,264C 924.333,268.833 931.167,273.667 938,278.5C 942.957,271.42 947.79,264.253 952.5,257C 953.5,256.333 954.5,256.333 955.5,257C 959.051,259.268 962.384,261.768 965.5,264.5C 953.067,283.045 940.401,301.378 927.5,319.5C 923.377,317.123 919.71,314.289 916.5,311C 921.247,303.51 926.247,296.177 931.5,289C 924.581,284.624 917.748,280.124 911,275.5C 906.043,282.58 901.21,289.747 896.5,297C 895.5,297.667 894.5,297.667 893.5,297C 889.949,294.732 886.616,292.232 883.5,289.5C 896.091,271.311 908.425,252.977 920.5,234.5 Z"/></g>
<g><path style="opacity:0.9" fill="#fefffe" d="M 370.5,244.5 C 384.98,261.583 398.646,279.417 411.5,298C 408.226,301.308 404.559,304.141 400.5,306.5C 395.011,299.539 389.511,292.539 384,285.5C 377.411,290.211 370.911,295.045 364.5,300C 370.411,306.743 375.745,313.91 380.5,321.5C 377.149,324.848 373.482,327.848 369.5,330.5C 355.96,312.797 342.627,294.964 329.5,277C 332.331,273.676 335.664,270.843 339.5,268.5C 345.406,275.317 351.073,282.317 356.5,289.5C 363.344,284.911 370.01,280.078 376.5,275C 371.045,267.923 365.712,260.756 360.5,253.5C 363.853,250.478 367.187,247.478 370.5,244.5 Z"/></g>
<g><path style="opacity:0.996" fill="#fefefe" d="M 640.5,267.5 C 779.21,266.117 891.71,319.117 978,426.5C 1054.33,531.502 1077.67,647.502 1048,774.5C 1013.29,897.864 938.128,987.031 822.5,1042C 711.499,1089.33 600.499,1089.33 489.5,1042C 375.482,987.641 300.648,899.808 265,778.5C 234.287,654.084 255.287,539.417 328,434.5C 406.285,331.263 510.451,275.596 640.5,267.5 Z"/></g>
<g><path style="opacity:0.9" fill="#fefffe" d="M 977.5,275.5 C 978.922,275.709 980.255,276.209 981.5,277C 991.376,286.379 1001.38,295.546 1011.5,304.5C 1009.17,307.167 1006.83,309.833 1004.5,312.5C 999.187,308.355 994.02,304.021 989,299.5C 986.973,307.8 985.14,316.133 983.5,324.5C 975.416,326.694 967.416,329.194 959.5,332C 964.927,336.382 969.927,341.216 974.5,346.5C 972.157,349.207 969.823,351.874 967.5,354.5C 956.178,345.177 945.178,335.51 934.5,325.5C 946.552,320.735 958.885,316.735 971.5,313.5C 973.5,300.832 975.5,288.165 977.5,275.5 Z"/></g>
<g><path style="opacity:1" fill="#0a4169" d="M 596.5,773.5 C 596.829,767.794 596.495,762.128 595.5,756.5C 594.893,756.624 594.56,756.957 594.5,757.5C 584.748,761.292 578.415,768.292 575.5,778.5C 574.514,774.03 574.181,769.363 574.5,764.5C 575.247,730.102 584.747,698.436 603,669.5C 608.729,661.936 615.562,655.603 623.5,650.5C 625.816,655.613 627.649,660.947 629,666.5C 633.999,660.14 640.499,657.807 648.5,659.5C 648.274,644.253 640.94,633.92 626.5,628.5C 631.64,627.512 636.974,627.179 642.5,627.5C 649.908,626.697 654.908,629.697 657.5,636.5C 660.151,634.35 662.651,632.017 665,629.5C 668.902,595.35 667.902,561.35 662,527.5C 660.641,522.062 658.974,516.728 657,511.5C 652.374,507.221 648.374,507.887 645,513.5C 638.116,527.934 631.783,542.6 626,557.5C 620.873,566.634 613.373,572.801 603.5,576C 597.833,576.667 592.167,576.667 586.5,576C 585.572,575.612 584.905,574.945 584.5,574C 585.606,567.741 587.106,561.575 589,555.5C 589.667,553.5 589.667,551.5 589,549.5C 584.711,543.542 580.044,537.876 575,532.5C 574.517,531.552 574.351,530.552 574.5,529.5C 580.559,528.319 586.559,526.819 592.5,525C 580.595,517.845 568.595,517.678 556.5,524.5C 555.479,523.998 555.312,523.332 556,522.5C 561.521,515.974 568.354,511.474 576.5,509C 585.502,508.953 594.502,508.953 603.5,509C 609.363,508.413 615.03,507.08 620.5,505C 626.977,493.211 633.31,481.378 639.5,469.5C 647.357,474.019 653.024,480.519 656.5,489C 656.833,489.167 657.167,489.333 657.5,489.5C 659.29,484.749 661.957,480.582 665.5,477C 669.952,476.14 673.452,477.64 676,481.5C 680.064,487.236 683.73,493.236 687,499.5C 689.19,502.249 690.857,501.915 692,498.5C 693.15,488.085 694.816,477.752 697,467.5C 700.035,454.531 694.868,448.031 681.5,448C 676.167,447.333 670.833,447.333 665.5,448C 661.892,449.323 658.225,449.989 654.5,450C 651.291,447.223 649.291,443.723 648.5,439.5C 650.56,430.809 652.726,422.142 655,413.5C 658.265,406.579 661.932,399.913 666,393.5C 669.176,384.146 673.176,375.146 678,366.5C 686.31,354.53 694.977,342.863 704,331.5C 704.667,329.167 704.667,326.833 704,324.5C 699.724,316.626 696.058,308.626 693,300.5C 698.76,304.193 704.927,306.693 711.5,308C 704.57,299.066 696.903,290.733 688.5,283C 715.841,286.171 739.508,297.171 759.5,316C 770.49,325.648 779.99,336.482 788,348.5C 795.63,364.016 800.63,380.349 803,397.5C 809.369,407.559 816.702,416.893 825,425.5C 842.681,450.876 852.181,479.043 853.5,510C 853.746,528.259 848.579,544.759 838,559.5C 828.63,567.571 822.297,577.571 819,589.5C 812.127,619.276 806.461,649.276 802,679.5C 801.152,697.527 801.485,715.527 803,733.5C 805.053,737.292 808.219,738.458 812.5,737C 817.577,733.599 822.911,730.599 828.5,728C 833.135,726.079 837.968,725.246 843,725.5C 867.748,728.178 892.248,732.345 916.5,738C 922.391,739.612 927.725,742.279 932.5,746C 940.167,753 947.833,760 955.5,767C 962.16,769.954 969.16,771.621 976.5,772C 988.149,774.407 998.315,779.574 1007,787.5C 1013.12,795.128 1015.12,803.794 1013,813.5C 1011.69,820.426 1009.03,826.76 1005,832.5C 985.535,861.302 964.535,888.969 942,915.5C 917.131,942.034 892.631,968.867 868.5,996C 857.839,996.5 847.172,996.667 836.5,996.5C 837.639,986.538 840.806,977.205 846,968.5C 872.972,933.895 897.972,897.895 921,860.5C 928.833,846.183 933.333,830.85 934.5,814.5C 934.426,809.593 931.926,807.259 927,807.5C 922.487,808.094 919.154,810.427 917,814.5C 916.726,820.296 915.726,825.963 914,831.5C 912.833,832.667 911.667,833.833 910.5,835C 900.094,835.073 889.761,835.74 879.5,837C 870.19,846.642 860.524,855.975 850.5,865C 843.278,870.276 835.278,873.943 826.5,876C 818.23,878.71 812.063,883.877 808,891.5C 805.577,898.034 803.577,904.701 802,911.5C 798.048,919.563 791.548,923.73 782.5,924C 756.045,927.679 730.712,924.012 706.5,913C 702.217,910.385 698.217,907.385 694.5,904C 684.833,895 675.167,886 665.5,877C 655.564,878.216 645.564,879.382 635.5,880.5C 627.332,881.036 619.999,878.869 613.5,874C 605.596,866.766 598.429,858.933 592,850.5C 590.595,846.928 590.262,843.261 591,839.5C 600.034,830.39 603.701,819.39 602,806.5C 599.198,795.656 597.364,784.656 596.5,773.5 Z"/></g>
<g><path style="opacity:0.889" fill="#fefffe" d="M 315.5,287.5 C 319.278,289.443 322.278,292.277 324.5,296C 322.385,299.118 319.885,301.952 317,304.5C 316.333,305.167 316.333,305.833 317,306.5C 328.985,319.318 341.151,331.985 353.5,344.5C 350.5,348.167 347.167,351.5 343.5,354.5C 331.012,341.845 318.679,329.012 306.5,316C 305.833,315.333 305.167,315.333 304.5,316C 301.952,318.885 299.118,321.385 296,323.5C 292.7,321.367 289.866,318.701 287.5,315.5C 297.161,306.506 306.494,297.173 315.5,287.5 Z"/></g>
<g><path style="opacity:0.899" fill="#fefffe" d="M 277.5,324.5 C 278.552,324.351 279.552,324.517 280.5,325C 282.875,327.176 285.208,329.343 287.5,331.5C 283.355,336.813 279.021,341.98 274.5,347C 282.833,348.667 291.167,350.333 299.5,352C 302.328,359.817 305.162,367.65 308,375.5C 312.667,370.167 317.333,364.833 322,359.5C 324.739,362.118 327.573,364.618 330.5,367C 321.325,378.338 311.992,389.504 302.5,400.5C 301.914,400.291 301.414,399.957 301,399.5C 296.929,387.786 292.762,376.119 288.5,364.5C 275.819,362.442 263.152,360.275 250.5,358C 259.737,346.94 268.737,335.773 277.5,324.5 Z"/></g>
<g><path style="opacity:0.888" fill="#fefffe" d="M 240.5,370.5 C 241.552,370.351 242.552,370.517 243.5,371C 260.833,383 278.167,395 295.5,407C 296.517,408.049 296.684,409.216 296,410.5C 293.667,413.5 291.333,416.5 289,419.5C 270.671,406.662 252.504,393.662 234.5,380.5C 236.952,377.394 238.952,374.061 240.5,370.5 Z"/></g>
<g><path style="opacity:0.909" fill="#fefffe" d="M 1068.5,375.5 C 1069.87,375.343 1071.21,375.51 1072.5,376C 1075.21,379.242 1077.54,382.742 1079.5,386.5C 1066.4,406.377 1053.07,426.043 1039.5,445.5C 1035.84,442.186 1033.17,438.186 1031.5,433.5C 1033.8,429.523 1036.13,425.523 1038.5,421.5C 1034.03,414.196 1028.86,407.529 1023,401.5C 1018.53,403.255 1014.03,403.921 1009.5,403.5C 1007.17,400.167 1004.83,396.833 1002.5,393.5C 1002.71,392.914 1003.04,392.414 1003.5,392C 1025.41,386.941 1047.07,381.441 1068.5,375.5 Z M 1057.5,391.5 C 1059.03,391.517 1059.53,392.184 1059,393.5C 1054.67,399.5 1050.33,405.5 1046,411.5C 1043.2,406.737 1040.04,402.237 1036.5,398C 1043.66,395.966 1050.66,393.799 1057.5,391.5 Z"/></g>
<g><path style="opacity:0.898" fill="#fefffe" d="M 222.5,396.5 C 225.016,396.755 227.35,397.589 229.5,399C 247.189,408.507 264.522,418.507 281.5,429C 280.113,433.038 277.947,436.538 275,439.5C 259.349,430.84 243.683,422.174 228,413.5C 223.418,420.418 219.251,427.584 215.5,435C 230.428,444.404 245.762,453.237 261.5,461.5C 261.478,466.557 259.478,470.89 255.5,474.5C 236.167,463.5 216.833,452.5 197.5,441.5C 206.099,426.634 214.432,411.634 222.5,396.5 Z"/></g>
<g><path style="opacity:0.897" fill="#fefffe" d="M 1096.5,415.5 C 1098.07,415.937 1099.24,416.937 1100,418.5C 1105.08,428.99 1110.41,439.323 1116,449.5C 1116.75,450.635 1116.58,451.635 1115.5,452.5C 1112.73,453.97 1109.89,455.303 1107,456.5C 1103.93,453.371 1101.6,449.704 1100,445.5C 1084.58,453.794 1069.08,461.961 1053.5,470C 1052.36,470.749 1051.36,470.583 1050.5,469.5C 1048.36,465.919 1046.86,462.253 1046,458.5C 1061.59,449.618 1077.43,441.118 1093.5,433C 1091.37,429.245 1089.37,425.412 1087.5,421.5C 1090.74,419.725 1093.74,417.725 1096.5,415.5 Z"/></g>
<g><path style="opacity:1" fill="#0e436a" d="M 526.5,439.5 C 530.49,438.824 532.157,440.49 531.5,444.5C 529.389,456.335 526.556,468.002 523,479.5C 522.333,485.5 522.333,491.5 523,497.5C 526.888,507.939 527.555,518.606 525,529.5C 522.595,538.381 519.595,547.047 516,555.5C 510.344,560.828 504.011,565.161 497,568.5C 490.85,564.52 486.35,559.187 483.5,552.5C 485.903,545.457 488.403,538.457 491,531.5C 492.266,525.405 491.266,519.738 488,514.5C 480.84,508.181 475.673,500.514 472.5,491.5C 473,491.167 473.5,490.833 474,490.5C 478.355,492.317 482.855,492.817 487.5,492C 488.097,490.938 488.43,489.772 488.5,488.5C 484.425,476.366 486.425,465.366 494.5,455.5C 495.564,459.192 496.73,462.858 498,466.5C 498.423,467.956 499.256,468.456 500.5,468C 508.609,457.912 517.276,448.412 526.5,439.5 Z"/></g>
<g><path style="opacity:0.9" fill="#fefffe" d="M 1117.5,459.5 C 1120.59,459.626 1122.43,461.293 1123,464.5C 1127.63,475.057 1131.63,485.724 1135,496.5C 1131.84,498.888 1128.34,500.055 1124.5,500C 1123.13,496.089 1121.13,492.589 1118.5,489.5C 1101.91,496.525 1085.24,503.025 1068.5,509C 1066.7,505.24 1065.04,501.407 1063.5,497.5C 1079.69,490.242 1096.02,483.242 1112.5,476.5C 1112.83,476 1113.17,475.5 1113.5,475C 1112.31,471.445 1110.97,467.945 1109.5,464.5C 1111.97,462.462 1114.64,460.795 1117.5,459.5 Z"/></g>
<g><path style="opacity:0.903" fill="#fefffe" d="M 188.5,460.5 C 191.647,460.737 194.647,461.57 197.5,463C 198.516,463.519 199.182,464.353 199.5,465.5C 197.149,472.193 194.816,478.86 192.5,485.5C 196.817,486.999 201.15,488.166 205.5,489C 208.037,482.526 211.037,476.359 214.5,470.5C 217.5,471.667 220.5,472.833 223.5,474C 224.022,474.561 224.355,475.228 224.5,476C 222.069,481.793 219.735,487.627 217.5,493.5C 218.09,494.799 219.09,495.632 220.5,496C 224.099,497.309 227.599,498.809 231,500.5C 233.814,493.715 236.814,487.048 240,480.5C 243.094,481.962 246.261,483.296 249.5,484.5C 249.833,485.167 250.167,485.833 250.5,486.5C 246.557,497.331 242.223,507.998 237.5,518.5C 216.51,510.33 195.843,501.664 175.5,492.5C 179.846,481.812 184.179,471.145 188.5,460.5 Z"/></g>
<g><path style="opacity:1" fill="#f4f6f8" d="M 502.5,506.5 C 509.395,506.187 515.229,508.853 520,514.5C 521.588,520.645 520.088,525.811 515.5,530C 514.256,530.456 513.423,529.956 513,528.5C 514.047,518.93 510.547,511.597 502.5,506.5 Z"/></g>
<g><path style="opacity:1" fill="#14466d" d="M 448.5,509.5 C 455.674,509.46 462.341,511.294 468.5,515C 464.833,517.333 461.833,520.333 459.5,524C 453.375,526.875 447.042,529.041 440.5,530.5C 442.525,525.407 444.025,520.073 445,514.5C 445.997,512.677 447.164,511.01 448.5,509.5 Z"/></g>
<g><path style="opacity:0.899" fill="#fefffe" d="M 1136.5,511.5 C 1138.14,511.286 1139.64,511.62 1141,512.5C 1142.07,515.871 1143.23,519.204 1144.5,522.5C 1144.29,523.086 1143.96,523.586 1143.5,524C 1122.58,530.641 1101.74,537.474 1081,544.5C 1078.73,540.077 1077.57,535.577 1077.5,531C 1097.37,524.764 1117.04,518.264 1136.5,511.5 Z"/></g>
<g><path style="opacity:0.912" fill="#fefffe" d="M 167.5,513.5 C 189.225,517.973 210.725,523.306 232,529.5C 231.87,534.23 230.704,538.73 228.5,543C 211.755,549.137 195.089,555.47 178.5,562C 192.811,565.661 207.144,569.161 221.5,572.5C 220.961,577.321 219.795,581.988 218,586.5C 196.883,580.929 175.716,575.429 154.5,570C 153.978,569.439 153.645,568.772 153.5,568C 154.411,564.855 155.245,561.688 156,558.5C 156.388,557.572 157.055,556.905 158,556.5C 174.36,550.382 190.527,543.882 206.5,537C 192.565,533.183 178.565,529.683 164.5,526.5C 165.343,522.127 166.343,517.793 167.5,513.5 Z"/></g>
<g><path style="opacity:1" fill="#0f436b" d="M 470.5,538.5 C 475.847,550.188 482.014,561.521 489,572.5C 490.069,581.678 488.903,590.511 485.5,599C 482.653,599.944 480.153,599.444 478,597.5C 474.509,589.895 472.509,581.895 472,573.5C 471.204,561.844 470.704,550.177 470.5,538.5 Z"/></g>
<g><path style="opacity:0.901" fill="#fefffe" d="M 1148.5,541.5 C 1149.12,541.611 1149.62,541.944 1150,542.5C 1151.29,547.096 1152.12,551.763 1152.5,556.5C 1144.26,557.513 1136.26,559.347 1128.5,562C 1137.99,566.578 1147.32,571.411 1156.5,576.5C 1158.46,580.921 1159.79,585.588 1160.5,590.5C 1160.17,591.167 1159.83,591.833 1159.5,592.5C 1147.89,585.778 1136.06,579.444 1124,573.5C 1122.39,574.101 1121.06,575.101 1120,576.5C 1112.38,587.119 1104.38,597.452 1096,607.5C 1094.31,602.226 1092.81,596.892 1091.5,591.5C 1098.5,582.833 1105.5,574.167 1112.5,565.5C 1111.83,565.167 1111.17,564.833 1110.5,564.5C 1102.86,566.498 1095.19,567.998 1087.5,569C 1085.93,564.649 1084.93,560.149 1084.5,555.5C 1106.08,551.434 1127.42,546.767 1148.5,541.5 Z"/></g>
<g><path style="opacity:1" fill="#14456d" d="M 438.5,549.5 C 443.343,549.117 448.009,549.783 452.5,551.5C 451.269,557.313 448.102,561.647 443,564.5C 437.732,561.624 435.398,557.291 436,551.5C 436.995,550.934 437.828,550.267 438.5,549.5 Z"/></g>
<g><path style="opacity:1" fill="#16476e" d="M 437.5,570.5 C 445.296,572.599 452.629,575.765 459.5,580C 464.605,584.372 466.772,589.872 466,596.5C 458.076,590.454 450.243,584.287 442.5,578C 439.8,576.143 438.134,573.643 437.5,570.5 Z"/></g>
<g><path style="opacity:0.908" fill="#fefffe" d="M 212.5,593.5 C 213.833,593.5 215.167,593.5 216.5,593.5C 215.935,598.149 215.435,602.816 215,607.5C 210.398,609.367 205.732,611.034 201,612.5C 200.364,619.862 199.531,627.195 198.5,634.5C 198.608,635.442 198.941,636.275 199.5,637C 203.167,638.833 206.833,640.667 210.5,642.5C 211.096,647.449 211.096,652.449 210.5,657.5C 188.281,647.724 166.614,636.891 145.5,625C 146.23,621.206 146.73,617.373 147,613.5C 147.5,613 148,612.5 148.5,612C 170.034,606.095 191.367,599.928 212.5,593.5 Z M 184.5,615.5 C 185.833,615.5 187.167,615.5 188.5,615.5C 188.477,620.874 187.977,626.207 187,631.5C 179.757,628.128 172.59,624.628 165.5,621C 172.034,619.428 178.368,617.595 184.5,615.5 Z"/></g>
<g><path style="opacity:1" fill="#11446b" d="M 604.5,632.5 C 603.532,630.393 603.198,628.059 603.5,625.5C 604.918,615.336 610.251,608.003 619.5,603.5C 621.073,611.005 620.573,618.338 618,625.5C 614.117,629.025 609.617,631.358 604.5,632.5 Z"/></g>
<g><path style="opacity:1" fill="#13456c" d="M 544.5,654.5 C 543.833,648.5 543.167,642.5 542.5,636.5C 542.108,624.767 539.442,613.6 534.5,603C 547.12,608.668 552.62,618.502 551,632.5C 549.449,640.04 547.283,647.374 544.5,654.5 Z"/></g>
<g><path style="opacity:0.921" fill="#fefffe" d="M 1157.5,610.5 C 1159.47,610.261 1161.3,610.594 1163,611.5C 1163.5,615.821 1163.67,620.154 1163.5,624.5C 1154.49,625.065 1145.49,625.731 1136.5,626.5C 1137.31,634.816 1137.98,643.15 1138.5,651.5C 1146.52,651.088 1154.52,650.422 1162.5,649.5C 1163.5,649.833 1164.5,650.167 1165.5,650.5C 1166.44,655.1 1166.78,659.767 1166.5,664.5C 1144.16,665.786 1121.83,667.119 1099.5,668.5C 1099.77,664.098 1099.44,659.765 1098.5,655.5C 1107.85,654.217 1117.18,652.884 1126.5,651.5C 1125.54,643.538 1124.71,635.538 1124,627.5C 1114.93,628.755 1105.76,629.422 1096.5,629.5C 1096.5,624.833 1096.5,620.167 1096.5,615.5C 1117.01,614.156 1137.34,612.489 1157.5,610.5 Z"/></g>
<g><path style="opacity:1" fill="#597e99" d="M 642.5,627.5 C 636.974,627.179 631.64,627.512 626.5,628.5C 625.711,628.217 625.044,627.717 624.5,627C 630.681,626.181 636.681,626.347 642.5,627.5 Z"/></g>
<g><path style="opacity:1" fill="#849fb3" d="M 603.5,625.5 C 603.198,628.059 603.532,630.393 604.5,632.5C 604.44,633.043 604.107,633.376 603.5,633.5C 602.2,630.691 602.2,628.024 603.5,625.5 Z"/></g>
<g><path style="opacity:1" fill="#61859e" d="M 542.5,636.5 C 543.167,642.5 543.833,648.5 544.5,654.5C 544.013,655.473 543.513,656.473 543,657.5C 542.5,650.508 542.334,643.508 542.5,636.5 Z"/></g>
<g><path style="opacity:1" fill="#f8f9fa" d="M 669.5,642.5 C 675.213,642.606 679.713,644.939 683,649.5C 683.667,655.167 683.667,660.833 683,666.5C 676.085,660.274 667.918,657.608 658.5,658.5C 659.193,651.111 662.86,645.778 669.5,642.5 Z"/></g>
<g><path style="opacity:0.92" fill="#fefffe" d="M 206.5,661.5 C 207.833,661.5 209.167,661.5 210.5,661.5C 210.5,665.833 210.5,670.167 210.5,674.5C 192.188,675.721 173.855,676.721 155.5,677.5C 156.203,686.149 156.536,694.815 156.5,703.5C 174.848,702.433 193.181,701.599 211.5,701C 212.467,705.401 212.8,709.901 212.5,714.5C 190.172,715.6 167.838,716.6 145.5,717.5C 144.567,700.178 143.901,682.845 143.5,665.5C 164.644,664.261 185.644,662.928 206.5,661.5 Z"/></g>
<g><path style="opacity:0.907" fill="#fefffe" d="M 1099.5,677.5 C 1110.21,684.61 1121.04,691.61 1132,698.5C 1143.48,692.762 1154.81,686.762 1166,680.5C 1165.62,695.517 1164.78,710.517 1163.5,725.5C 1159.85,725.058 1156.18,724.724 1152.5,724.5C 1153.55,717.824 1153.55,711.158 1152.5,704.5C 1145.17,708.167 1137.83,711.833 1130.5,715.5C 1123.83,710.833 1117.17,706.167 1110.5,701.5C 1108.84,708.394 1108.17,715.394 1108.5,722.5C 1104.52,721.979 1100.52,721.646 1096.5,721.5C 1097.57,706.841 1098.57,692.175 1099.5,677.5 Z"/></g>
<g><path style="opacity:1" fill="#16466d" d="M 558.5,692.5 C 560.41,693.975 561.576,695.975 562,698.5C 563.768,714.515 565.601,730.515 567.5,746.5C 567.531,753.714 565.697,760.381 562,766.5C 561.191,758.178 560.525,749.845 560,741.5C 558.475,733.15 554.308,726.483 547.5,721.5C 545.879,723.153 544.712,725.153 544,727.5C 537.264,719.33 536.931,710.997 543,702.5C 547.806,698.519 552.973,695.186 558.5,692.5 Z"/></g>
<g><path style="opacity:1" fill="#1e4b71" d="M 519.5,703.5 C 522.067,708.524 524.067,713.858 525.5,719.5C 525.423,721.299 524.923,722.966 524,724.5C 521.667,725.833 519.333,727.167 517,728.5C 517.034,720.094 517.867,711.761 519.5,703.5 Z"/></g>
<g><path style="opacity:1" fill="#fcfcfd" d="M 657.5,715.5 C 666.966,714.323 675.133,716.989 682,723.5C 683,725.5 684,727.5 685,729.5C 687.244,748.348 685.244,766.681 679,784.5C 677.132,785.672 675.298,785.505 673.5,784C 667.167,777 660.833,770 654.5,763C 645.6,761.18 640.434,765.014 639,774.5C 638.457,794.404 640.29,814.071 644.5,833.5C 643.035,847.579 637.535,849.245 628,838.5C 620.845,829.675 618.512,819.675 621,808.5C 618.761,803.923 616.095,799.589 613,795.5C 606.874,783.19 604.874,770.19 607,756.5C 610.747,741.429 619.58,730.596 633.5,724C 641.836,721.834 649.836,719.001 657.5,715.5 Z"/></g>
<g><path style="opacity:1" fill="#577b97" d="M 594.5,757.5 C 594.56,756.957 594.893,756.624 595.5,756.5C 596.495,762.128 596.829,767.794 596.5,773.5C 595.833,768.167 595.167,762.833 594.5,757.5 Z"/></g>
<g><path style="opacity:1" fill="#0e436b" d="M 534.5,769.5 C 540.68,771.176 544.847,775.176 547,781.5C 548.217,789.466 547.217,797.132 544,804.5C 537.886,814.394 532.552,824.728 528,835.5C 516.753,849.387 502.587,859.22 485.5,865C 477.954,867.738 470.287,870.071 462.5,872C 444.845,873.716 427.179,875.383 409.5,877C 385.873,881.062 365.706,891.562 349,908.5C 354.164,893.659 363.997,882.825 378.5,876C 385.952,872.738 393.619,870.071 401.5,868C 418.894,864.611 436.227,860.944 453.5,857C 466.038,853.649 477.205,847.816 487,839.5C 493.068,830.095 499.902,821.262 507.5,813C 515.043,808.373 523.043,804.706 531.5,802C 532.667,800.833 533.833,799.667 535,798.5C 534.839,791.836 534.339,785.169 533.5,778.5C 533.544,775.415 533.878,772.415 534.5,769.5 Z"/></g>
<g><path style="opacity:1" fill="#a2b7c6" d="M 574.5,764.5 C 574.181,769.363 574.514,774.03 575.5,778.5C 575.631,779.376 575.298,780.043 574.5,780.5C 573.185,775.014 573.185,769.68 574.5,764.5 Z"/></g>
<g><path style="opacity:1" fill="#f4f6f8" d="M 694.5,786.5 C 696.167,786.5 697.833,786.5 699.5,786.5C 698.307,790.911 696.807,795.244 695,799.5C 695.198,805.155 695.198,810.821 695,816.5C 690.081,826.19 689.248,836.19 692.5,846.5C 689.405,846.374 687.572,844.707 687,841.5C 685.07,832.257 683.904,822.924 683.5,813.5C 682.322,802.334 685.989,793.334 694.5,786.5 Z"/></g>
<g><path style="opacity:1" fill="#0f436b" d="M 564.5,788.5 C 568.846,788.334 573.179,788.501 577.5,789C 581.035,791.707 582.202,795.207 581,799.5C 577,806.833 573,814.167 569,821.5C 567.828,828.628 568.661,835.462 571.5,842C 566.167,842.667 560.833,842.667 555.5,842C 551.205,841.102 547.372,839.269 544,836.5C 542.543,833.634 542.21,830.634 543,827.5C 549.989,814.359 557.156,801.359 564.5,788.5 Z"/></g>
<g><path style="opacity:0.847" fill="#fefffe" d="M 230.5,815.5 C 231.496,815.414 232.329,815.748 233,816.5C 233.557,818.615 234.391,820.615 235.5,822.5C 225.143,827.461 214.476,831.961 203.5,836C 190.562,840.512 187.562,848.512 194.5,860C 201.112,863.21 207.778,863.21 214.5,860C 224.255,855.971 234.088,852.137 244,848.5C 246.13,850.589 247.63,853.089 248.5,856C 234.058,862.369 219.225,867.536 204,871.5C 190.365,869.804 183.198,861.971 182.5,848C 182.627,841.083 185.627,835.749 191.5,832C 204.478,826.182 217.478,820.682 230.5,815.5 Z"/></g>
<g><path style="opacity:0.857" fill="#fefffe" d="M 1078.5,824.5 C 1099.51,824.606 1120.51,825.106 1141.5,826C 1140.41,828.443 1139.41,830.943 1138.5,833.5C 1131.85,834.392 1125.19,834.392 1118.5,833.5C 1116.81,839.41 1114.81,845.244 1112.5,851C 1116.64,855.465 1121.14,859.632 1126,863.5C 1126.37,866.776 1125.54,869.776 1123.5,872.5C 1107.52,859.689 1091.69,846.689 1076,833.5C 1076.7,830.562 1077.53,827.562 1078.5,824.5 Z M 1087.5,833.5 C 1095.38,832.164 1103.38,832.331 1111.5,834C 1109.81,838.542 1107.98,843.042 1106,847.5C 1099.96,842.617 1093.79,837.95 1087.5,833.5 Z"/></g>
<g><path style="opacity:1" fill="#f8fafb" d="M 707.5,836.5 C 709.199,836.34 710.866,836.506 712.5,837C 713.022,837.561 713.355,838.228 713.5,839C 711.781,842.584 710.281,846.084 709,849.5C 713.869,850.801 718.702,852.301 723.5,854C 725.741,855.739 727.408,857.906 728.5,860.5C 719.853,861.665 711.186,861.832 702.5,861C 698.916,859.336 697.249,856.503 697.5,852.5C 697.594,850.077 698.094,847.744 699,845.5C 701.362,841.973 704.196,838.973 707.5,836.5 Z"/></g>
<g><path style="opacity:0.846" fill="#fefffe" d="M 1066.5,859.5 C 1068.63,861.127 1070.63,862.96 1072.5,865C 1056.93,879.762 1057.93,893.095 1075.5,905C 1087.65,910.629 1097.48,907.796 1105,896.5C 1106.8,892.268 1108.3,887.934 1109.5,883.5C 1114.57,883.398 1116.41,885.731 1115,890.5C 1107.23,915.798 1091.4,922.631 1067.5,911C 1054.19,900.879 1050.69,888.046 1057,872.5C 1059.23,867.447 1062.39,863.114 1066.5,859.5 Z"/></g>
<g><path style="opacity:0.844" fill="#fefffe" d="M 252.5,870.5 C 253.822,870.33 254.989,870.663 256,871.5C 257.039,873.746 258.206,875.913 259.5,878C 251.42,892.829 243.086,907.496 234.5,922C 246.898,915.675 259.398,909.175 272,902.5C 273.86,904.375 275.36,906.542 276.5,909C 259.5,918.5 242.5,928 225.5,937.5C 223.474,935.295 221.808,932.795 220.5,930C 229.59,914.641 238.09,899.141 246,883.5C 233.411,891.213 220.578,898.546 207.5,905.5C 205.774,903.772 204.441,901.772 203.5,899.5C 203.977,898.522 204.643,897.689 205.5,897C 221.553,888.646 237.22,879.812 252.5,870.5 Z"/></g>
<g><path style="opacity:0.837" fill="#fefffe" d="M 1036.5,910.5 C 1053.23,919.707 1069.57,929.707 1085.5,940.5C 1085.83,941 1086.17,941.5 1086.5,942C 1085.68,943.49 1084.85,944.99 1084,946.5C 1083.16,948.007 1082,948.507 1080.5,948C 1064.5,937.667 1048.5,927.333 1032.5,917C 1033.72,914.722 1035.05,912.555 1036.5,910.5 Z"/></g>
<g><path style="opacity:0.836" fill="#fefffe" d="M 284.5,922.5 C 287.144,924.153 289.144,926.487 290.5,929.5C 274.5,940.5 258.5,951.5 242.5,962.5C 240.367,960.909 238.701,958.909 237.5,956.5C 237.977,955.522 238.643,954.689 239.5,954C 254.68,943.637 269.68,933.137 284.5,922.5 Z"/></g>
<g><path style="opacity:0.833" fill="#fefffe" d="M 1026.5,925.5 C 1029.12,926.48 1031.45,927.98 1033.5,930C 1030.7,934.436 1027.53,938.603 1024,942.5C 1023.33,943.167 1023.33,943.833 1024,944.5C 1036.71,954.883 1049.71,964.883 1063,974.5C 1062.55,976.883 1061.39,979.05 1059.5,981C 1058.5,981.667 1057.5,981.667 1056.5,981C 1043.86,970.681 1030.86,960.847 1017.5,951.5C 1014.36,955.811 1011.02,959.978 1007.5,964C 1003.64,964.136 1001.8,962.303 1002,958.5C 1010.67,947.797 1018.84,936.797 1026.5,925.5 Z"/></g>
<g><path style="opacity:0.845" fill="#fefffe" d="M 295.5,938.5 C 298.196,940.199 300.196,942.533 301.5,945.5C 293.227,959.103 284.56,972.436 275.5,985.5C 290.379,980.646 305.379,975.312 320.5,969.5C 323.375,970.55 325.375,972.55 326.5,975.5C 307.504,983.393 288.171,990.726 268.5,997.5C 266.5,995.167 264.5,992.833 262.5,990.5C 273.511,973.138 284.511,955.805 295.5,938.5 Z"/></g>
<g><path style="opacity:0.833" fill="#fefffe" d="M 996.5,965.5 C 999.069,966.396 1001.07,968.062 1002.5,970.5C 998.682,974.818 994.682,978.985 990.5,983C 1002.67,994.5 1014.83,1006 1027,1017.5C 1026.25,1020.44 1024.42,1022.78 1021.5,1024.5C 1008.85,1013.02 996.349,1001.35 984,989.5C 980.869,993.633 977.369,997.466 973.5,1001C 969.667,1001.17 967.833,999.333 968,995.5C 977.339,985.328 986.839,975.328 996.5,965.5 Z"/></g>
<g><path style="opacity:0.831" fill="#fefffe" d="M 332.5,982.5 C 337.941,986.766 343.274,991.266 348.5,996C 351.551,998.714 354.218,1001.71 356.5,1005C 355.494,1008.03 353.494,1009.36 350.5,1009C 345.615,1003.61 340.282,998.779 334.5,994.5C 330.5,997.833 326.833,1001.5 323.5,1005.5C 328.152,1010.65 332.985,1015.65 338,1020.5C 337.805,1022.75 336.638,1024.58 334.5,1026C 333.833,1026.67 333.167,1026.67 332.5,1026C 327.667,1021.17 322.833,1016.33 318,1011.5C 313.667,1015.83 309.333,1020.17 305,1024.5C 304.333,1025.17 304.333,1025.83 305,1026.5C 310.635,1031.13 315.968,1036.13 321,1041.5C 320.6,1043.94 319.267,1045.94 317,1047.5C 308.845,1040.01 300.678,1032.51 292.5,1025C 306.038,1010.96 319.371,996.797 332.5,982.5 Z"/></g>
<g><path style="opacity:0.847" fill="#fefffe" d="M 951.5,1009.5 C 956.464,1010.95 961.131,1013.12 965.5,1016C 979.333,1024.08 993,1032.42 1006.5,1041C 1004.17,1042.83 1001.83,1044.67 999.5,1046.5C 994.5,1043.67 989.5,1040.83 984.5,1038C 983.5,1037.33 982.5,1037.33 981.5,1038C 977.125,1042.18 972.791,1046.34 968.5,1050.5C 970.833,1055.83 973.167,1061.17 975.5,1066.5C 973.833,1068.83 971.833,1070.83 969.5,1072.5C 960.746,1053.93 952.746,1034.93 945.5,1015.5C 947.827,1013.84 949.827,1011.84 951.5,1009.5 Z M 955.5,1021.5 C 962.717,1024.12 969.717,1027.96 976.5,1033C 972.833,1036.17 969.167,1039.33 965.5,1042.5C 962.408,1035.32 959.075,1028.32 955.5,1021.5 Z"/></g>
<g><path style="opacity:0.843" fill="#fefffe" d="M 366.5,1014.5 C 373.764,1018.05 380.264,1022.72 386,1028.5C 392.156,1036.73 391.656,1044.56 384.5,1052C 380.215,1054.71 375.548,1055.87 370.5,1055.5C 370.665,1058.52 370.498,1061.52 370,1064.5C 367.437,1071.29 364.604,1077.96 361.5,1084.5C 358.936,1082.77 356.936,1080.61 355.5,1078C 358.124,1071.42 360.457,1064.76 362.5,1058C 361.606,1052.6 358.606,1048.76 353.5,1046.5C 348.137,1052.86 342.804,1059.19 337.5,1065.5C 335.46,1063.82 333.46,1062.16 331.5,1060.5C 343.191,1045.15 354.858,1029.81 366.5,1014.5 Z M 369.5,1025.5 C 375.592,1027.92 379.592,1032.26 381.5,1038.5C 378.969,1048.1 373.303,1050.6 364.5,1046C 362.024,1044.69 360.024,1042.86 358.5,1040.5C 361.805,1035.2 365.472,1030.2 369.5,1025.5 Z"/></g>
<g><path style="opacity:0.839" fill="#fefffe" d="M 906.5,1044.5 C 908.842,1046.32 910.009,1048.65 910,1051.5C 905.586,1054.62 901.086,1057.62 896.5,1060.5C 905.041,1075.08 913.707,1089.58 922.5,1104C 920.507,1106 918.173,1107.5 915.5,1108.5C 906.472,1094.79 897.805,1080.79 889.5,1066.5C 888.635,1065.42 887.635,1065.25 886.5,1066C 882.566,1068.88 878.399,1071.38 874,1073.5C 872.389,1071.79 870.889,1069.96 869.5,1068C 881.898,1060.14 894.231,1052.31 906.5,1044.5 Z"/></g>
<g><path style="opacity:0.842" fill="#fefffe" d="M 405.5,1049.5 C 417.264,1048.22 426.264,1052.55 432.5,1062.5C 430.992,1064.51 429.158,1066.17 427,1067.5C 423.728,1061.72 418.894,1058.06 412.5,1056.5C 405.511,1058.48 403.344,1062.81 406,1069.5C 409.768,1074.04 412.768,1079.04 415,1084.5C 416.638,1100.53 409.471,1107.36 393.5,1105C 385.569,1102.57 379.569,1097.74 375.5,1090.5C 376.833,1088.5 378.5,1086.83 380.5,1085.5C 384.04,1090.2 388.373,1094.04 393.5,1097C 402.979,1099.19 407.145,1095.36 406,1085.5C 403,1080.5 400,1075.5 397,1070.5C 394.324,1061.19 397.157,1054.19 405.5,1049.5 Z"/></g>
<g><path style="opacity:0.84" fill="#fefffe" d="M 447.5,1068.5 C 450.423,1069.3 453.09,1070.63 455.5,1072.5C 446.588,1089.99 437.421,1107.32 428,1124.5C 426.247,1123.37 424.413,1122.37 422.5,1121.5C 421.417,1120.64 421.251,1119.64 422,1118.5C 430.769,1101.96 439.269,1085.3 447.5,1068.5 Z"/></g>
<g><path style="opacity:0.857" fill="#fefffe" d="M 854.5,1073.5 C 857.167,1073.5 859.833,1073.5 862.5,1073.5C 862.993,1075.81 863.326,1078.14 863.5,1080.5C 856.184,1080.2 850.35,1082.87 846,1088.5C 844.749,1093.59 846.582,1097.09 851.5,1099C 857.833,1099.33 864.167,1099.67 870.5,1100C 880.054,1102.92 884.221,1109.42 883,1119.5C 881.325,1125.84 877.492,1130.34 871.5,1133C 866.051,1135.28 860.384,1136.45 854.5,1136.5C 854.167,1133.83 853.833,1131.17 853.5,1128.5C 863.915,1130.13 871.248,1126.3 875.5,1117C 874.597,1113.86 872.93,1111.2 870.5,1109C 862.911,1107.77 855.244,1107.1 847.5,1107C 837.798,1102.24 834.965,1094.74 839,1084.5C 843.051,1079.23 848.217,1075.56 854.5,1073.5 Z"/></g>
<g><path style="opacity:0.845" fill="#fefffe" d="M 463.5,1077.5 C 473.582,1081.03 483.582,1084.86 493.5,1089C 497.543,1090.45 501.21,1092.45 504.5,1095C 503.952,1097.27 502.786,1099.1 501,1100.5C 496.11,1098.64 491.276,1096.64 486.5,1094.5C 479.238,1110.03 472.238,1125.69 465.5,1141.5C 462.427,1140.97 460.094,1139.47 458.5,1137C 464.541,1121.71 470.874,1106.54 477.5,1091.5C 472.167,1088.83 466.833,1086.17 461.5,1083.5C 462.747,1081.68 463.414,1079.68 463.5,1077.5 Z"/></g>
<g><path style="opacity:0.844" fill="#fefffe" d="M 819.5,1089.5 C 821.655,1091.62 822.655,1094.28 822.5,1097.5C 814.941,1099.3 807.608,1101.8 800.5,1105C 802.175,1110.55 804.508,1115.72 807.5,1120.5C 814.206,1117.31 821.04,1115.31 828,1114.5C 829.205,1116.53 829.372,1118.53 828.5,1120.5C 821.872,1123.1 815.205,1125.6 808.5,1128C 810.802,1133.74 812.802,1139.57 814.5,1145.5C 822.902,1143.37 831.235,1141.03 839.5,1138.5C 840.363,1140.9 840.363,1143.23 839.5,1145.5C 829.406,1149.64 819.072,1152.98 808.5,1155.5C 802.296,1136.89 796.296,1118.22 790.5,1099.5C 800.529,1096.94 810.195,1093.6 819.5,1089.5 Z"/></g>
<g><path style="opacity:0.84" fill="#fefffe" d="M 510.5,1096.5 C 513.899,1096.81 517.066,1097.81 520,1099.5C 521.58,1109 523.58,1118.34 526,1127.5C 532.846,1120.95 539.346,1114.12 545.5,1107C 548.949,1107.09 552.283,1107.92 555.5,1109.5C 546.511,1118.32 537.344,1126.99 528,1135.5C 525.199,1143.4 522.699,1151.4 520.5,1159.5C 520.167,1159.83 519.833,1160.17 519.5,1160.5C 517.271,1159.42 514.937,1158.76 512.5,1158.5C 514.339,1150.14 516.339,1141.81 518.5,1133.5C 515.986,1121.11 513.32,1108.78 510.5,1096.5 Z"/></g>
<g><path style="opacity:0.855" fill="#fefffe" d="M 777.5,1104.5 C 778.833,1104.5 780.167,1104.5 781.5,1104.5C 779.681,1124.82 778.014,1145.15 776.5,1165.5C 773.279,1166.57 770.112,1166.57 767,1165.5C 761,1152.17 755,1138.83 749,1125.5C 747.831,1140.88 746.331,1156.21 744.5,1171.5C 742.167,1172.17 739.833,1172.83 737.5,1173.5C 728.372,1155.41 719.372,1137.24 710.5,1119C 713.652,1117.43 716.819,1116.93 720,1117.5C 726.333,1131.5 732.667,1145.5 739,1159.5C 740.078,1143.84 741.078,1128.17 742,1112.5C 744.746,1111.35 747.579,1110.85 750.5,1111C 757.676,1124.85 764.176,1139.02 770,1153.5C 770.97,1137.5 771.804,1121.5 772.5,1105.5C 774.415,1105.78 776.081,1105.45 777.5,1104.5 Z"/></g>
<g><path style="opacity:0.862" fill="#fefffe" d="M 604.5,1116.5 C 624.15,1115.99 634.15,1125.49 634.5,1145C 633.661,1169.23 621.328,1179.57 597.5,1176C 586.145,1170.47 580.478,1161.31 580.5,1148.5C 580.83,1131.76 588.83,1121.09 604.5,1116.5 Z M 606.5,1123.5 C 619.297,1125.03 625.63,1132.36 625.5,1145.5C 626.06,1158.76 620.06,1167.09 607.5,1170.5C 595.627,1168.45 589.627,1161.28 589.5,1149C 589.397,1136.31 595.064,1127.81 606.5,1123.5 Z"/></g>
<g><path style="opacity:0.871" fill="#fefffe" d="M 672.5,1119.5 C 675.833,1119.5 679.167,1119.5 682.5,1119.5C 682.5,1122.17 682.5,1124.83 682.5,1127.5C 674.5,1127.5 666.5,1127.5 658.5,1127.5C 658.425,1133.53 658.759,1139.53 659.5,1145.5C 666.508,1145.33 673.508,1145.5 680.5,1146C 681.423,1148.04 681.756,1150.21 681.5,1152.5C 674.167,1152.5 666.833,1152.5 659.5,1152.5C 659.5,1161.5 659.5,1170.5 659.5,1179.5C 656.833,1179.5 654.167,1179.5 651.5,1179.5C 650.653,1159.85 650.32,1140.18 650.5,1120.5C 658.019,1120.82 665.352,1120.49 672.5,1119.5 Z"/></g>
</svg>
