<?xml version="1.0" encoding="iso-8859-1"?>
<!-- Uploaded to: SVG Repo, www.svgrepo.com, Generator: SVG Repo Mixer Tools -->
<!DOCTYPE svg PUBLIC "-//W3C//DTD SVG 1.1//EN" "http://www.w3.org/Graphics/SVG/1.1/DTD/svg11.dtd">
<svg fill="#000000" version="1.1" id="Capa_1" xmlns="http://www.w3.org/2000/svg" xmlns:xlink="http://www.w3.org/1999/xlink" 
	 width="800px" height="800px" viewBox="0 0 487.403 487.403"
	 xml:space="preserve">
<g>
	<path d="M485.485,147.168c-8.912-51.251-51.034-91.912-102.524-99.306c-57.862-8.302-109.416,23.824-130.581,72.271
		c-1.689,3.871-5.16,5.933-8.678,5.933c-3.518,0-6.989-2.062-8.678-5.933c-21.165-48.446-72.718-80.572-130.581-72.271
		C52.952,55.256,10.83,95.917,1.918,147.168C-5.27,188.5,8.264,226.919,33.846,253.754c5.561,6.711,14.008,16.156,20.27,23.298
		c33.494,38.2,105.859,107.919,152.262,149.677c8.863,7.988,21.044,13.609,34.087,14.074c1.617,0.059,4.855,0.059,6.473,0
		c13.043-0.465,25.226-6.086,34.087-14.074c46.403-41.758,118.77-111.477,152.262-149.677c6.263-7.142,14.709-16.587,20.271-23.298
		C479.14,226.919,492.675,188.5,485.485,147.168z"/>
</g>
</svg>